<?xml version="1.0" encoding="UTF-8"?>
<svg width="193px" height="150px" viewBox="0 0 193 150" version="1.1" xmlns="http://www.w3.org/2000/svg" xmlns:xlink="http://www.w3.org/1999/xlink">
    <title>Group Copy</title>
    <g id="01" stroke="none" stroke-width="1" fill="none" fill-rule="evenodd">
        <g id="03" transform="translate(-83.000000, -21.000000)">
            <g id="Group-Copy" transform="translate(87.000000, 25.000000)">
                <g id="Group-3" transform="translate(46.815051, 38.111835)" fill="#FFFFFF">
                    <path d="M41.5396682,23.4283918 C39.1751656,21.0090902 36.5682421,19.5426798 33.7188975,19.0291606 C30.8695529,18.5156414 27.8836061,18.9740844 24.7610571,20.4044896 C18.1951203,16.802385 13.0261618,15.5134146 9.25418185,16.5375785 C3.59621186,18.0738244 2.37604198,22.6469603 1.08104635,26.5649928 C-0.213949292,30.4830253 -0.0587568847,35.6214985 2.6666709,36.4682109 C5.39209868,37.3149233 6.82610562,34.2574813 11.1455801,29.6917554 C12.2394458,28.5355289 13.867256,26.4477411 16.0290106,23.4283918 L18.1887341,24.8502735 L14.7086733,29.6917554 C11.1296323,33.9700448 9.94193454,38.0997425 11.1455801,42.0808487 C12.3492257,46.0619548 15.4584538,48.2032286 20.4732645,48.5046699 C14.8398214,59.1298499 11.1001272,67.5880887 9.25418185,73.8793863 C6.4852638,83.3163327 4.19208669,89.3265418 6.95392262,96.5918293 C9.71575855,103.857117 16.8489468,105.818517 21.6522109,106.49365 C26.455475,107.168783 30.9131171,107.168783 33.7188975,106.49365 C36.5246778,105.818517 39.7880872,105.818517 43.8026696,102.566988 C46.4790579,100.399303 48.4736863,97.5258536 49.7865547,93.9466408 C50.7259823,89.4377145 50.9691538,85.4385668 50.5160693,81.9491976 C50.2252526,79.7095121 49.6275704,77.5256711 48.7230225,75.3976745 C47.1583331,71.7166587 45.8464269,67.9332486 44.7964303,64.0737619 L41.5396682,52.1028377 L41.5396682,52.1028377 C44.0633926,51.5479066 45.8575932,50.6661038 46.9222702,49.4574293 C48.5192856,47.6444175 48.5544662,47.1153444 48.5544662,44.1392881 C48.5544662,42.1552505 48.0104009,37.3394063 46.9222702,29.6917554 C48.9789291,30.4032174 50.677952,31.6614899 52.019339,33.4665731 C53.3607261,35.2716562 54.2844896,38.1430814 54.7906298,42.0808487 C58.0875918,42.3691329 60.2156869,41.2845897 61.1749149,38.827219 C62.6137569,35.1411628 61.9776804,33.4263643 60.7405288,29.6917554 C59.5033771,25.9571465 57.0132978,24.8502735 54.7906298,23.7588676 C53.3088511,23.0312637 48.8918639,22.9211051 41.5396682,23.4283918 Z" id="Path-12"></path>
                    <path d="M75.7938826,49.9306563 C75.4711888,48.9326924 74.6395325,47.9497349 73.2989136,46.9817839 L72.1805626,38 L66.6387715,43.9369205 C63.3822635,43.9702753 60.9578808,44.4125047 59.3656235,45.2636088 C57.7733662,46.1147129 56.1248188,47.6703954 54.4199813,49.9306563 L48,49.9306563 L51.0417369,56.0504782 C50.6180153,57.5653977 50.6180153,58.9257103 51.0417369,60.1314159 C51.6773194,61.9399742 51.9915288,62.2877158 53.4852627,63.2337535 C54.4810854,63.8644454 56.8926889,64.4228334 60.7200734,64.9089178 C56.5426972,77.6109405 54.1310937,85.2041293 53.4852627,87.6884844 C52.5165163,91.4150169 52.9053906,95.2742524 53.4852627,97.3611504 C53.7542449,98.3291886 55.4655284,102.21825 59.988241,105.029017 C61.3064635,105.848264 63.9763855,106.450305 67.9980068,106.835139 C72.7969635,107.42171 76.6356118,106.443027 79.5139516,103.899089 C82.3922914,101.355151 83.8876409,97.6453586 84,92.769712 L84,92.769712 L83.1722581,88.3414727 C82.6232653,85.4044804 81.6560856,82.5613526 80.3002301,79.8988401 L70.6958625,61.0386085 L70.6958625,61.0386085 C73.5709269,58.2628962 75.270267,56.1492712 75.7938826,54.6977335 C76.5793061,52.5204269 76.2779233,51.4276021 75.7938826,49.9306563 Z" id="Path-14"></path>
                    <path d="M98.3640847,18.0819421 C99.0767613,14.1990407 98.7045285,11.7778709 97.2473866,10.8184326 C95.0616736,9.3792752 93.5718951,9.98698914 91.6077123,11.4876185 C90.2982571,12.4880381 89.4290196,14.3653017 89,17.1194095 L89,24.8210128 C93.3788105,26.777915 96.500172,27.8180084 98.3640847,27.9412931 C101.159954,28.12622 103.414384,27.9631818 104.787627,26.1328944 C106.160871,24.302607 106.630417,21.5893039 104.787627,19.3798629 C103.5591,17.9069021 101.41792,17.4742619 98.3640847,18.0819421 Z" id="Path-16"></path>
                    <path d="M86.4939768,2.88915539 C85.9949204,0.963051796 85.4486435,0 84.855146,0 C83.9648999,0 83,0.444655048 83,2.88915539 C83,4.51882228 83.618382,6.22243715 84.855146,8 C87.644255,7.70825362 89.4313855,7.0878436 90.2165375,6.13876992 C91.3942655,4.7151594 91.1190158,2.30709331 90.2165375,1.5192736 C89.6148853,0.994060461 88.3740317,1.45068772 86.4939768,2.88915539 Z" id="Path-17"></path>
                    <path d="M70.6325956,16.7164866 C69.6580061,13.7058108 69.6876117,11.9446396 70.7214126,11.4329732 C72.2721138,10.6654734 75.3368442,10.632126 76.6086161,13.7587318 C77.456464,15.8431356 76.9268037,18.590225 75.0196352,22 C70.7974227,21.9657521 68.0782405,21.638606 66.8620884,21.0185618 C65.0378603,20.0884954 64.3746132,17.8716748 65.6880189,16.7164866 C66.5636226,15.9463611 68.2118149,15.9463611 70.6325956,16.7164866 Z" id="Path-18"></path>
                </g>
                <path d="M82.8457219,42.1118352 C78.0952599,34.5341121 72.7851987,28.8188536 66.9155384,24.9660597 C48.1474382,12.6468423 26.4670998,16.236371 17.8150515,22.6839279 C0.953204394,35.2494748 -3.67697807,60.3435394 2.81505148,80.5704128 C5.95088456,90.3405621 14.8989092,106.708772 32.4290901,121.111835 C36.8721938,124.762357 45.0387766,129.145754 56.9288384,134.262027" id="Path-19" stroke="#FFFFFF" stroke-width="6"></path>
                <path d="M127.338735,135.636586 C140.631034,128.01414 149.456472,121.904297 153.815051,117.307055 C177.540125,92.2828665 185.242392,67.473123 185.242392,49.1118352 C185.242392,13.9802314 160.748341,-3.5891908 134.920796,0.611835238 C117.702432,3.41251926 99.8587208,17.2458526 81.3896613,42.1118352 L80.8581888,39.4158079" id="Path-20" stroke="#FFFFFF" stroke-width="6"></path>
            </g>
        </g>
    </g>
</svg>